<svg xmlns="http://www.w3.org/2000/svg" xml:space="preserve" width="512" height="512" viewBox="0 0 460 460"><path d="M460 300v20c0 16.569-13.431 30-30 30h-10c5.523 0 10 4.477 10 10v70c0 5.523-4.477 10-10 10H40c-5.523 0-10-4.477-10-10v-70c0-5.523 4.477-10 10-10h70c-5.523 0-10-4.477-10-10s4.477-10 10-10h10v-40h-10c-5.523 0-10-4.477-10-10s4.477-10 10-10H30c-16.569 0-30-13.431-30-30v-40c0-16.569 13.431-30 30-30h120v-70H30C13.431 100 0 86.569 0 70V50c0-16.569 13.431-30 30-30h320c5.523 0 10 4.477 10 10s-4.477 10-10 10h-10v40h10c5.523 0 10 4.477 10 10s-4.477 10-10 10h20v70h-20c5.523 0 10 4.477 10 10s-4.477 10-10 10v60c5.523 0 10 4.477 10 10s-4.477 10-10 10h80c16.569 0 30 13.431 30 30" style="fill:#59595b"/><path d="M120 440H90v-90h30zm250-90h-30v90h30z" style="fill:#c18f2b"/><path d="M370 170h-20c5.523 0 10 4.477 10 10s-4.477 10-10 10v60c5.523 0 10 4.477 10 10s-4.477 10-10 10h80c16.569 0 30 13.431 30 30v20c0 16.569-13.431 30-30 30H110c-5.523 0-10-4.477-10-10s4.477-10 10-10h10v-40h-10c-5.523 0-10-4.477-10-10s4.477-10 10-10H30c-16.569 0-30-13.431-30-30v-40c0-16.569 13.431-30 30-30h40c-5.523 0-10-4.477-10-10v-50c0-5.523 4.477-10 10-10H30C13.431 100 0 86.569 0 70V50c0-16.569 13.431-30 30-30h320c5.523 0 10 4.477 10 10s-4.477 10-10 10h-10v40h10c5.523 0 10 4.477 10 10s-4.477 10-10 10h100c5.523 0 10 4.477 10 10v50c0 5.523-4.477 10-10 10z" style="fill:#732d21"/><path d="M440 305v10c0 8.284-6.716 15-15 15H137.318c1.703-5.885 2.682-12.712 2.682-20s-.979-14.115-2.682-20H425c8.284 0 15 6.716 15 15M20 55v10c0 8.284 6.716 15 15 15h287.682C320.979 74.115 320 67.288 320 60s.979-14.115 2.682-20H35c-8.284 0-15 6.716-15 15" style="fill:#8f8d7e"/><path d="M420 305v10c0 8.284-6.716 15-15 15H117.318c1.703-5.885 2.682-12.712 2.682-20s-.979-14.115-2.682-20H405c8.284 0 15 6.716 15 15M40 55v10c0 8.284 6.716 15 15 15h287.682C340.979 74.115 340 67.288 340 60s.979-14.115 2.682-20H55c-8.284 0-15 6.716-15 15" style="fill:#c6c2ac"/><path d="M363.659 310c0 2.761-33.579 5-75 5s-75-2.239-75-5 33.579-5 75-5 75 2.239 75 5M305 50c-41.421 0-75 2.239-75 5s33.579 5 75 5c12.648 0 24.557-.21 35.01-.578.022-3.037.216-5.988.559-8.825C329.984 50.216 317.872 50 305 50" style="fill:#8f8d7e"/><path d="m320 380-30-10-30 10v-65a5 5 0 0 1 5-5h50a5 5 0 0 1 5 5z" style="fill:#b04230"/><path d="M460 110v50c0 5.523-4.477 10-10 10H350c5.523 0 10 4.477 10 10s-4.477 10-10 10v60c5.523 0 10 4.477 10 10s-4.477 10-10 10H30c-16.569 0-30-13.431-30-30v-40c0-16.569 13.431-30 30-30h40c-5.523 0-10-4.477-10-10v-50c0-5.523 4.477-10 10-10h380c5.523 0 10 4.477 10 10" style="fill:#677445"/><path d="M370 170H150v-70h220zm-250-70h-20v70h20zm310 0h-40v70h40z" style="fill:#798751"/><path d="M360 260c0 5.523-4.477 10-10 10H30c-16.569 0-30-13.431-30-30v-40c0-16.569 13.431-30 30-30h320c5.523 0 10 4.477 10 10s-4.477 10-10 10v60c5.523 0 10 4.477 10 10" style="fill:#b14724"/><path d="M32.318 190H320c-1.703 8.827-2.682 19.067-2.682 30s.979 21.173 2.682 30H32.318c-8.284 0-15-10.074-15-22.5v-15c0-12.426 6.715-22.5 15-22.5" style="fill:#8f8d7e"/><path d="M55.496 190h297.187c-1.759 8.827-2.771 19.067-2.771 30s1.012 21.173 2.771 30H55.496C46.938 250 40 239.926 40 227.5v-15c0-12.426 6.938-22.5 15.496-22.5" style="fill:#c6c2ac"/><path d="M168.659 215c41.421 0 75 2.239 75 5s-33.579 5-75 5-75-2.239-75-5 33.578-5 75-5m179.023-15c-41.421 0-75 2.239-75 5s33.579 5 75 5c.848 0 1.687-.002 2.528-.004.2-3.437.494-6.778.886-9.99a966 966 0 0 0-3.414-.006m2.528 30.004c-.841-.002-1.68-.004-2.528-.004-41.421 0-75 2.239-75 5s33.579 5 75 5q1.716 0 3.414-.006a159 159 0 0 1-.886-9.99" style="fill:#8f8d7e"/></svg>
