<svg xmlns="http://www.w3.org/2000/svg" xml:space="preserve" width="800" height="800" viewBox="0 0 512.001 512.001"><path d="M510.642 186.465c-.521-4.58-4.518-7.985-9.128-7.985h-19.949c-4.717-26.671-15.128-51.336-30.057-72.681l14.072-14.072c3.26-3.26 3.677-8.494.808-12.1a212 212 0 0 0-16.045-17.967 213 213 0 0 0-17.967-16.045c-3.606-2.869-8.842-2.452-12.1.808l-14.072 14.072c-21.347-14.929-46.01-25.341-72.681-30.057V10.486c0-4.61-3.406-8.606-7.985-9.128A213 213 0 0 0 302.044.015V0c-.094 0-.184.008-.278.008S301.581 0 301.487 0v.016c-7.941.021-15.783.467-23.494 1.343-4.58.522-7.985 4.518-7.985 9.128v19.95c-26.671 4.717-51.336 15.128-72.681 30.057l-14.072-14.072c-3.26-3.26-8.494-3.677-12.1-.808-6.216 4.946-12.217 10.295-17.967 16.045s-11.099 11.751-16.045 17.967c-2.871 3.606-2.452 8.84.808 12.1l14.072 14.072c-14.929 21.347-25.341 46.01-30.057 72.681h-19.951c-4.61 0-8.606 3.406-9.127 7.985a213 213 0 0 0-1.359 24.05c0 8.132.461 16.157 1.359 24.049.521 4.58 4.518 7.985 9.127 7.985h19.95c4.717 26.671 15.128 51.336 30.057 72.681l-14.072 14.072c-3.26 3.26-3.677 8.494-.808 12.1a213 213 0 0 0 16.045 17.967 213 213 0 0 0 17.967 16.045c3.606 2.869 8.84 2.452 12.1-.808l14.071-14.071c21.347 14.929 46.01 25.341 72.683 30.057v19.95c0 4.608 3.406 8.606 7.985 9.128a212 212 0 0 0 23.494 1.343v.016c.094 0 .184-.008.278-.008s.184.008.278.008v-.016a213 213 0 0 0 23.494-1.343c4.58-.521 7.985-4.518 7.985-9.128v-19.95c26.672-4.717 51.336-15.128 72.683-30.057l14.071 14.071c3.26 3.26 8.494 3.677 12.1.808a213 213 0 0 0 17.967-16.045 213 213 0 0 0 16.045-17.967c2.871-3.606 2.452-8.84-.808-12.1l-14.072-14.072c14.929-21.347 25.341-46.01 30.057-72.681h19.95c4.61 0 8.606-3.406 9.128-7.985a213 213 0 0 0 1.359-24.049 213 213 0 0 0-1.36-24.049" style="fill:#c7cfe2"/><circle cx="301.484" cy="210.515" r="156.147" style="fill:#afb9d2"/><path d="M292.024 73.54c-65.612 4.398-119.972 56.387-127.009 121.769-3.591 33.365 4.805 64.627 21.394 90.062 4.764 7.305 3.928 16.88-2.239 23.047l-30.234 30.234 19.414 19.414 30.234-30.234c6.167-6.167 15.742-7.003 23.047-2.239 25.435 16.588 56.696 24.985 90.062 21.394 65.382-7.037 117.371-61.396 121.769-127.009 5.582-83.284-63.155-152.021-146.438-146.438" style="fill:#7f8499"/><circle cx="301.484" cy="210.515" r="110.383" style="fill:#f1f4fb"/><path d="M372.154 200.806c-4.067 0-7.786-2.736-8.849-6.855-5.837-22.511-23.177-40.133-45.263-45.983-4.889-1.296-7.803-6.306-6.507-11.195 1.305-4.885 6.319-7.772 11.19-6.503 28.469 7.549 50.805 30.189 58.296 59.086 1.269 4.893-1.672 9.89-6.56 11.155a9.1 9.1 0 0 1-2.307.295" style="fill:#fff"/><path d="M332.524 248.877c-34.303-7.631-61.756-35.079-69.396-69.381-2.837-12.741-2.915-25.095-.81-36.694 1.289-7.103-6.44-12.544-12.417-8.496-27.455 18.593-44.351 51.577-39.742 88.162 5.156 40.933 38.438 74.213 79.37 79.371 36.586 4.61 69.571-12.285 88.165-39.74 4.048-5.977-1.395-13.706-8.497-12.417-11.592 2.104-23.938 2.028-36.673-.805" style="fill:#e4eaf8"/><path d="M198.681 359.593 55.858 502.417c-12.778 12.779-33.495 12.779-46.273 0s-12.778-33.495 0-46.273l142.823-142.823a9.153 9.153 0 0 1 12.944 0l33.329 33.329a9.15 9.15 0 0 1 0 12.943" style="fill:#9b735a"/><path d="M37.042 511.57c-12.777-12.778-12.777-33.496 0-46.273l140.142-140.142-11.833-11.833a9.153 9.153 0 0 0-12.944 0L9.584 456.144c-12.777 12.777-12.777 33.495 0 46.273 7.498 7.498 17.72 10.47 27.477 9.168q-.009-.009-.019-.015" style="fill:#8c5f50"/></svg>
